<svg version="1.1" viewBox="0 0 16 16" xmlns="http://www.w3.org/2000/svg">
	<g transform="translate(8.5842e-5)">
		<path d="m11.281 5e-3c-0.278 0.075-0.375 0.5-0.156 0.688l3.187 3.186c0.22 0.23 0.692 0.037 0.688-0.281v-3.218a0.414 0.414 0 0 0-0.406-0.375h-3.188a0.375 0.375 0 0 0-0.125 0z" overflow="visible" />
		<path d="m1.844 5e-3c-0.482 0.088-0.854 0.533-0.844 1v13.995c0 0.524 0.513 1 1.063 1h11.875c0.55 0 1.062-0.476 1.062-1l-0.031-7.59a0.975 0.975 0 0 0-0.281-0.72l-6.408-6.403a1.081 1.081 0 0 0-0.75-0.28h-5.467a1.331 1.331 0 0 0-0.22 0zm1.156 2h4l3.5 3.498 2.5 2.5v5.997h-10z" overflow="visible" />
		<path d="m5 11h3v0.969h-3zm0-2.031h6v1.063h-6zm0-1.938h5v0.969h-5zm0-2h3v0.969h-3z"/>
	</g>
</svg>
