<?xml version="1.0" standalone="no"?>
<!DOCTYPE svg PUBLIC "-//W3C//DTD SVG 20010904//EN"
 "http://www.w3.org/TR/2001/REC-SVG-20010904/DTD/svg10.dtd">
<svg version="1.0" xmlns="http://www.w3.org/2000/svg"
 width="700.000000pt" height="700.000000pt" viewBox="0 0 700.000000 700.000000"
 preserveAspectRatio="xMidYMid meet">
<metadata>
Created by potrace 1.11, written by Peter Selinger 2001-2013
</metadata>
<g transform="translate(0.000000,700.000000) scale(0.100000,-0.100000)"
fill="#000000" stroke="none">
<path d="M743 6979 c-141 -48 -261 -178 -293 -319 -19 -79 -19 -6243 0 -6310
44 -164 202 -309 369 -340 36 -7 960 -10 2695 -10 2606 0 2642 1 2707 20 164
50 302 194 335 350 6 32 6 100 -1 1915 -4 1018 -9 1538 -16 1575 -26 131 37
64 -1499 1598 -784 783 -1448 1439 -1475 1458 -28 19 -78 44 -110 56 l-60 22
-1301 1 c-1200 1 -1304 0 -1351 -16z m2321 -859 c3 -3 594 -594 1315 -1314
l1310 -1309 -1 -1308 c0 -973 -3 -1309 -12 -1311 -10 -4 -4341 -3 -4357 1 -6
1 -10 5231 -4 5241 4 6 1742 6 1749 0z"/>
<path d="M2189 4742 c-1 -66 -1 -355 0 -362 1 -3 295 -5 654 -5 l652 0 3 212
2 212 -655 0 -655 0 -1 -57z"/>
<path d="M2198 3919 c-8 -5 -13 -246 -9 -391 l1 -28 1093 0 1092 0 0 204 c0
112 -4 208 -8 212 -9 9 -2154 12 -2169 3z"/>
<path d="M2190 2990 c-1 -251 -2 -318 -1 -347 l1 -33 1313 0 1312 0 -2 158
c-1 86 -2 191 -2 232 l-1 75 -1310 1 -1310 0 0 -86z"/>
<path d="M2190 2142 c-1 -65 -1 -332 0 -357 0 -21 2 -21 655 -21 l655 0 0 212
0 212 -655 1 -655 0 0 -47z"/>
<path d="M4915 6990 c-74 -28 -114 -130 -90 -230 8 -33 1438 -1467 1482 -1486
85 -37 196 5 240 91 14 26 16 118 16 750 0 396 -3 734 -7 750 -11 43 -51 92
-94 114 -35 18 -75 18 -782 18 -410 1 -754 -3 -765 -7z"/>
</g>
</svg>
